<svg id="Layer_1" data-name="Layer 1" xmlns="http://www.w3.org/2000/svg" viewBox="0 0 301.4 109.55"><defs><style>.cls-1,.cls-2{fill:#fff;}.cls-1{fill-rule:evenodd;}</style></defs><path class="cls-1" d="M170.91,2.23c-.37,4.38-.16,12.12-.16,16.55,0,2.84-.16,5.2-.16,8.11v8.43l-24.34-.16c0-2.85-.16-5.16-.16-7.95V18.93l-8.28-.31v41c0,.82.83.32,1.59.32h6.85l-.16-16.39h24.82V76.37c0,.37.11.48.47.48,8.56,0,7.52.58,7.85-1.7.7-4.82.74-31.3.74-35.21,0-3.14-.15-6.09-.15-9.39V20.84c0-6-.32-12.93-.32-18.93-2.38-.2-3.56-1-6.65-.28-.63.15-1.26.44-1.94.6m-38.82,0h-10.5l-.16,74c1.07,0,1.45.15,2.38.17h7.8c3.61,0,6.89.16,10.34.16,7.08,0,13.7.16,20.68.16l.16-24.82H158c-1.45,0-2.24.16-3.66.16l.16,16.22H129.7V10.66l24.5-.16c0,1.38.16,2.44.16,4,0,1.26-.09,2.91,0,4.13l.15,6.05c0,.95.14,1.36.16,2.07l6.37.17c1.55,0,1.27.21,1.26-2.56,0-7.1.48-15.26.48-22.27C152.39,2.07,142.49,2.23,132.09,2.23Z" transform="translate(0 -1.33)"/><path class="cls-2" d="M297.47,96v14.7h-2.2V96h-3.93V93.82H301.4V96Zm-19.38-2.18h2l7,12v-12h2.19V110.7h-1.91l-7.05-12.2v12.2h-2.18Zm-8.25,0L276,110.7h-2.33l-2.17-6H267l-2.16,6h-2.33l6.14-16.88Zm.85,8.72-1.44-4-1.44,4ZM255.4,105.3h-2v5.4h-2.19V93.82H256a5.85,5.85,0,0,1,3.44,1.68,5.77,5.77,0,0,1,0,8.12,4.78,4.78,0,0,1-1.77,1.31l3.74,5.77h-2.65Zm-2-9.28v7.08h2a3.54,3.54,0,0,0,0-7.08Zm-7.54-2.2h2.19v11.89a5.88,5.88,0,0,1-1.68,3.43,5.73,5.73,0,0,1-9.79-4V93.82h2.19v11.27a3.55,3.55,0,0,0,3.54,3.54,3.52,3.52,0,0,0,3.55-3.54Zm-17.11,0,6.14,16.88h-2.32l-2.17-6h-4.47l-2.17,6h-2.33l6.14-16.88Zm.86,8.72-1.45-4-1.43,4ZM217.23,96v14.7H215V96H211.1V93.82h10.06V96Zm-12.4,6a7.34,7.34,0,0,1-2.9-1.72,3.71,3.71,0,0,1-1.12-2.75,4,4,0,0,1,6.74-2.79,4.87,4.87,0,0,1,1.1,2l-2,.77a3.85,3.85,0,0,0-.66-1.26,1.7,1.7,0,0,0-1.24-.51,1.79,1.79,0,0,0-1.26.51,1.8,1.8,0,0,0,0,2.51,5.67,5.67,0,0,0,1.61,1,8.32,8.32,0,0,1,3.36,2A5,5,0,0,1,210,105.6a5.27,5.27,0,0,1-5.26,5.28,5.05,5.05,0,0,1-3.73-1.56,5.83,5.83,0,0,1-1.55-3.4l2.11-.77a4.3,4.3,0,0,0,1,2.64,3.09,3.09,0,1,0,4.36-4.37A6.18,6.18,0,0,0,204.83,102Zm-7.19-8.22V96h-6.91v5.16h6.91v2.18h-6.91v5.16h6.91v2.2h-9.09V93.82ZM180.37,105.3h-2v5.4H176.2V93.82H181a5.83,5.83,0,0,1,3.43,1.68,5.75,5.75,0,0,1,0,8.12,4.78,4.78,0,0,1-1.77,1.31l3.74,5.77h-2.64Zm-2-9.28v7.08h2a3.54,3.54,0,1,0,0-7.08Zm-13.57,6.46a2.87,2.87,0,0,1,1.39,2.41,2.55,2.55,0,0,1-.37,1.33,3,3,0,0,1-1.86,1.39,4.28,4.28,0,0,1-1.18,1.71,5,5,0,0,1-3.72,1.56,5.27,5.27,0,0,1-5.26-5.28,5.31,5.31,0,0,1,1.51-3.77,3.07,3.07,0,0,1,1.66-1,4.76,4.76,0,0,1-1.63-3.28,4,4,0,0,1,6.74-2.79,4.87,4.87,0,0,1,1.09,2l-2,.77a3.88,3.88,0,0,0-.65-1.26,1.79,1.79,0,0,0-2.5,0,1.7,1.7,0,0,0-.52,1.26,1.92,1.92,0,0,0,.54,1.33,2.94,2.94,0,0,0,1,.75,6.33,6.33,0,0,0,1.87.19v2.1h-1.29a5,5,0,0,0-2.78,1.37,3.26,3.26,0,0,0-.91,2.28,3.11,3.11,0,0,0,3.1,3.1,4,4,0,0,0,2.74-1.5c-.19-.16-.54-.5-1-1a4,4,0,0,0-.43-.36.51.51,0,0,0-.25-.09h0a.14.14,0,0,0-.14.11.16.16,0,0,0,0,.09.37.37,0,0,0,.05.16l-1.8,1.21a2.49,2.49,0,0,1-.33-.74,2.41,2.41,0,0,1-.09-.64,2.33,2.33,0,0,1,.32-1.16,2.3,2.3,0,0,1,1.43-1.11,2.48,2.48,0,0,1,.65-.09,2.29,2.29,0,0,1,1.16.31,4.2,4.2,0,0,1,1,1,2,2,0,0,0,1.12.79h.13a.6.6,0,0,0,.58-.38.59.59,0,0,0,0-.2c0-.22-.17-.46-.49-.73Zm-28.42,8.22V93.82h2.18V108.5h6v2.2Zm-2.9-16.88V96h-6.91v5.16h6.91v2.18h-6.91v5.16h6.91v2.2H124.4V93.82ZM118.36,96v14.7h-2.2V96h-3.93V93.82h10.06V96Zm-15.85-.2a6.44,6.44,0,1,0,4.55,1.89A6.18,6.18,0,0,0,102.51,95.8Zm0-2.2a8.64,8.64,0,1,1-6.11,2.53A8.31,8.31,0,0,1,102.51,93.6ZM83.57,103.71v7H81.39V93.82h2.18v7.71h5.21V93.82H91V110.7H88.78v-7Zm-19.78.21L58,93.82h2.51l4.4,7.64,4.42-7.64h2.52L66,103.92v6.78H63.79ZM49.45,110.7V93.82h2.18V108.5h6v2.2ZM46.06,93.82V110.7H43.88V93.82Zm-19,0,5.47,9.46L38,93.82h2V110.7H37.8V98.5l-5.26,9.12L27.26,98.5v12.2H25.08V93.82Zm-10.76,0,6.14,16.88H20.13l-2.17-6H13.49l-2.17,6H9l6.13-16.88Zm.86,8.72-1.45-4-1.43,4ZM8.12,93.82V96H2.18v5.16H8.12v2.18H2.18v7.36H0V93.82Z" transform="translate(0 -1.33)"/></svg>